# xmcd
# 
# Track frame offsets:
#     150
#     19740
#     35338
#     52256
#     72198
#     92500
#     105923
#     119306
#     137311
#     163442
#     179501
#     197461
# 
# Disc length: 2867
# 
# Revision: 1436337116
# Processed by: cddbd v1.5.2PL0 Copyright (c) Steve Scherf et al.
# Submitted via: fre:ac v1.0.31
# 
DISCID=9c0b310c
DTITLE=Randy Houser - Magnolia
DYEAR=2019
DGENRE=Country
TTITLE0=Randy Houser - No Stone Unturned
TTITLE1=Randy Houser Feat. Lucie Silvas - Our Hearts
TTITLE2=Randy Houser Feat. Hillary Lindsey - What Whiskey Does
TTITLE3=Randy Houser - Whole Lotta Quit
TTITLE4=Randy Houser - No Good Place To Cry
TTITLE5=Randy Houser - New Buzz
TTITLE6=Randy Houser - Nothin' On You
TTITLE7=Randy Houser - What Leaving Looks Like
TTITLE8=Randy Houser - High Time
TTITLE9=Randy Houser - Mamma Don't Know
TTITLE10=Randy Houser - Running Man
TTITLE11=Randy Houser - Evangeline
EXTD=
EXTT0=
EXTT1=
EXTT2=
EXTT3=
EXTT4=
EXTT5=
EXTT6=
EXTT7=
EXTT8=
EXTT9=
EXTT10=
EXTT11=
PLAYORDER=
